<?xml version="1.0" encoding="UTF-8" standalone="no"?>
<!DOCTYPE svg PUBLIC "-//W3C//DTD SVG 1.1//EN" "http://www.w3.org/Graphics/SVG/1.1/DTD/svg11.dtd">
<svg width="100%" height="100%" viewBox="0 0 1660 1660" version="1.1" xmlns="http://www.w3.org/2000/svg" xmlns:xlink="http://www.w3.org/1999/xlink" xml:space="preserve" xmlns:serif="http://www.serif.com/" style="fill-rule:evenodd;clip-rule:evenodd;stroke-linejoin:round;stroke-miterlimit:2;">
    <g transform="matrix(1,0,0,1,-4843.765494,-1868.221483)">
        <g id="Artboard7" transform="matrix(1,0,0,1,-4852.2162,-4237.939932)">
            <rect x="9695.982" y="6106.161" width="1659.888" height="1659.888" style="fill:none;"/>
            <g id="icon" transform="matrix(3.893816,0,0,3.893816,5383.293835,-1911.731421)">
                <g transform="matrix(1,0,0,1,445.778525,16.210128)">
                    <circle cx="874.939" cy="2256.069" r="199.587" style="fill:rgb(38,60,139);"/>
                </g>
                <g transform="matrix(0.483592,0.483592,-0.483592,0.483592,1314.578209,769.584473)">
                    <path d="M1695.654,1711.095L1701.27,1730.98C1702.65,1735.87 1701.27,1741.12 1697.69,1744.69L1677.08,1765.31C1673.66,1768.74 1667.88,1767.74 1665.8,1763.37L1599.1,1623.57L1563.62,1588.1L1539.06,1612.66C1522.3,1629.41 1505.94,1642.83 1491.15,1653.14L1514.29,1704.39C1516.43,1709.11 1515.4,1714.65 1511.74,1718.32L1496.61,1733.45C1494.36,1735.7 1490.6,1735.31 1488.87,1732.64L1451.49,1675.28C1440.07,1679.72 1432.21,1680.48 1429.55,1677.82C1426.89,1675.16 1427.64,1667.29 1432.08,1655.87L1374.72,1618.5C1372.05,1616.76 1371.66,1613 1373.91,1610.75L1389.04,1595.62C1392.72,1591.96 1398.26,1590.94 1402.98,1593.07L1454.23,1616.22C1464.53,1601.43 1477.95,1585.06 1494.71,1568.3C1494.71,1568.3 1504.49,1558.52 1519.27,1543.75L1483.79,1508.26L1343.99,1441.57C1339.63,1439.48 1338.63,1433.71 1342.05,1430.28L1362.67,1409.67C1366.24,1406.09 1371.5,1404.71 1376.38,1406.09L1402.31,1413.414L1427.01,1420.39L1427.069,1420.331L1469.729,1432.251L1469.57,1432.41L1511.08,1444.12L1511.327,1443.873L1553.995,1455.795L1553.65,1456.14L1595.14,1467.87L1642.09,1420.92C1684.39,1378.62 1724.32,1354.39 1738.64,1368.73C1752.97,1383.05 1728.75,1422.97 1686.44,1465.28L1639.49,1512.22L1651.22,1553.72L1651.582,1553.358L1663.503,1596.027L1663.24,1596.29L1674.96,1637.79L1675.126,1637.624L1687.043,1680.277L1686.97,1680.35L1695.654,1711.095Z" style="fill:white;"/>
                </g>
            </g>
        </g>
    </g>
</svg>
