<?xml version="1.0" encoding="UTF-8"?>
<svg id="Layer_1" data-name="Layer 1" xmlns="http://www.w3.org/2000/svg" xmlns:xlink="http://www.w3.org/1999/xlink" viewBox="0 0 1920 492">
  <defs>
    <filter id="drop-shadow-1" filterUnits="userSpaceOnUse">
      <feOffset dx="0" dy="5"/>
      <feGaussianBlur result="blur" stdDeviation="3"/>
      <feFlood flood-color="#000" flood-opacity=".82"/>
      <feComposite in2="blur" operator="in"/>
      <feComposite in="SourceGraphic"/>
    </filter>
    <filter id="drop-shadow-2" filterUnits="userSpaceOnUse">
      <feOffset dx="-2" dy="2"/>
      <feGaussianBlur result="blur-2" stdDeviation="3"/>
      <feFlood flood-color="#000" flood-opacity=".79"/>
      <feComposite in2="blur-2" operator="in"/>
      <feComposite in="SourceGraphic"/>
    </filter>
  </defs>
  <g>
    <g>
      <path d="M429.82,158.66l-75.64,43.67v87.34l75.64,43.67,75.64-43.67v-87.34l-75.64-43.67ZM486.17,278.53l-56.35,32.53-56.35-32.53v-65.06l56.35-32.53,56.35,32.53v65.06Z" style="fill: #3e62ba; stroke-width: 0px;"/>
      <path d="M486.17,213.47s16.34,11.89,19.29-11.14l-19.29,11.14Z" style="fill: #161919; filter: url(#drop-shadow-1); opacity: .64; stroke-width: 0px;"/>
      <path d="M486.17,213.47s16.71,9.11,19.29-11.14l-19.29,11.14Z" style="fill: #3e62ba; stroke-width: 0px;"/>
      <path d="M484.34,212.41l17.2-12.33,3.92,2.25s-17.22,11.74-19.29,11.14l-1.82-1.06Z" style="fill: #3e62ba; stroke-width: 0px;"/>
    </g>
    <g>
      <path d="M429.82,134l-97,56v112l97,56,97-56v-112l-97-56ZM513.82,294.5l-84,48.5-84-48.5v-97l84-48.5,84,48.5v97Z" style="fill: #51a2ff; stroke-width: 0px;"/>
      <path d="M526.82,190c-3.16,12.22-13,7.5-13,7.5l13-7.5Z" style="fill: #3f4242; filter: url(#drop-shadow-2); opacity: .64; stroke-width: 0px;"/>
      <polygon points="526.82 190 526.82 190 513.82 197.5 429.82 149.01 345.82 197.5 345.82 294.5 345.9 294.55 332.9 302.05 332.82 302 332.82 190 429.82 134 526.82 190" style="fill: #51a2ff; stroke-width: 0px;"/>
      <path d="M526.82,190c-2.82,9.66-13,7.5-13,7.5l13-7.5Z" style="fill: #51a2ff; stroke-width: 0px;"/>
    </g>
  </g>
  <g>
    <path d="M185.92,201.95c-4.46-8.18-10.59-14.4-18.4-18.68-7.81-4.28-16.92-6.41-27.33-6.41-11.53,0-21.75,2.61-30.67,7.81-8.92,5.21-15.89,12.64-20.91,22.31-5.02,9.67-7.53,20.82-7.53,33.46s2.55,24.35,7.67,34.02c5.11,9.67,12.22,17.1,21.33,22.3,9.1,5.21,19.7,7.81,31.79,7.81,14.87,0,27.05-3.95,36.53-11.85,9.48-7.9,15.71-18.91,18.68-33.04h-66.92v-29.84h105.4v34.02c-2.61,13.57-8.18,26.12-16.73,37.64-8.55,11.53-19.57,20.77-33.04,27.74-13.48,6.97-28.58,10.46-45.31,10.46-18.78,0-35.74-4.22-50.89-12.69-15.15-8.46-27.05-20.21-35.69-35.27s-12.97-32.16-12.97-51.3,4.32-36.29,12.97-51.44c8.64-15.15,20.54-26.95,35.69-35.41,15.15-8.46,32.02-12.69,50.61-12.69,21.93,0,40.99,5.35,57.16,16.03,16.17,10.69,27.32,25.7,33.46,45.03h-44.89Z" style="stroke-width: 0px;"/>
    <path d="M303.58,131.68v206.33h-39.04v-206.33h39.04Z" style="stroke-width: 0px;"/>
  </g>
  <g>
    <path d="M793.75,198.74c11.61,11.62,17.43,27.84,17.43,48.65v90.62h-39.04v-85.32c0-12.08-3.07-21.33-9.2-27.74s-14.5-9.62-25.09-9.62-19.01,3.21-25.23,9.62c-6.23,6.41-9.34,15.66-9.34,27.74v85.32h-39.04v-85.32c0-12.08-3.07-21.33-9.2-27.74-6.13-6.41-14.5-9.62-25.09-9.62s-19.29,3.21-25.51,9.62c-6.23,6.41-9.34,15.66-9.34,27.74v85.32h-39.04v-154.47h39.04v18.68c5.02-6.5,11.48-11.62,19.38-15.34,7.9-3.71,16.59-5.58,26.07-5.58,12.08,0,22.86,2.56,32.34,7.67,9.48,5.12,16.82,12.41,22.03,21.89,5.02-8.92,12.31-16.08,21.89-21.47,9.57-5.39,19.94-8.09,31.09-8.09,18.96,0,34.25,5.81,45.87,17.43Z" style="stroke-width: 0px;"/>
    <path d="M990.74,272.49h-112.92c.93,11.15,4.83,19.89,11.71,26.21,6.88,6.32,15.34,9.48,25.37,9.48,14.5,0,24.82-6.23,30.95-18.68h42.1c-4.46,14.87-13.01,27.09-25.65,36.66-12.64,9.58-28.16,14.36-46.56,14.36-14.87,0-28.21-3.3-40.01-9.9-11.81-6.6-21.01-15.94-27.6-28.02-6.6-12.08-9.9-26.02-9.9-41.82s3.25-30.02,9.76-42.1c6.5-12.08,15.61-21.37,27.33-27.88,11.71-6.5,25.19-9.76,40.43-9.76s27.83,3.16,39.45,9.48c11.61,6.32,20.63,15.29,27.05,26.91,6.41,11.62,9.62,24.95,9.62,40.01,0,5.58-.37,10.6-1.12,15.06ZM951.43,246.28c-.19-10.04-3.81-18.08-10.87-24.12-7.07-6.04-15.71-9.06-25.93-9.06-9.67,0-17.8,2.93-24.4,8.78-6.6,5.86-10.64,13.99-12.13,24.4h73.33Z" style="stroke-width: 0px;"/>
    <path d="M1050.83,332.99c-10.87-4.64-19.47-11.34-25.79-20.08-6.32-8.73-9.58-19.05-9.76-30.95h41.82c.56,7.99,3.39,14.32,8.5,18.96,5.11,4.65,12.13,6.97,21.05,6.97s16.26-2.18,21.47-6.55c5.2-4.37,7.81-10.08,7.81-17.15,0-5.76-1.77-10.5-5.3-14.22-3.53-3.72-7.95-6.64-13.24-8.78-5.3-2.13-12.59-4.51-21.89-7.11-12.64-3.71-22.91-7.39-30.81-11.01-7.9-3.62-14.69-9.11-20.35-16.45-5.67-7.34-8.5-17.15-8.5-29.42,0-11.52,2.88-21.56,8.64-30.11,5.76-8.55,13.85-15.1,24.26-19.66,10.41-4.55,22.31-6.83,35.69-6.83,20.08,0,36.39,4.88,48.93,14.64,12.55,9.76,19.47,23.38,20.77,40.85h-42.94c-.38-6.69-3.21-12.22-8.5-16.59-5.3-4.37-12.32-6.55-21.05-6.55-7.62,0-13.71,1.95-18.26,5.86-4.56,3.9-6.83,9.58-6.83,17.01,0,5.21,1.72,9.53,5.16,12.96,3.44,3.44,7.71,6.23,12.83,8.37,5.11,2.14,12.31,4.6,21.61,7.39,12.64,3.72,22.96,7.44,30.95,11.15,7.99,3.72,14.87,9.3,20.63,16.73,5.76,7.44,8.64,17.2,8.64,29.28,0,10.41-2.7,20.08-8.09,29-5.39,8.92-13.29,16.03-23.7,21.33-10.41,5.3-22.77,7.95-37.08,7.95-13.57,0-25.79-2.32-36.67-6.97Z" style="stroke-width: 0px;"/>
    <path d="M1249.9,188.14c8.83-4.74,18.91-7.11,30.25-7.11,13.2,0,25.14,3.26,35.83,9.76,10.69,6.51,19.14,15.75,25.37,27.74,6.23,11.99,9.34,25.89,9.34,41.68s-3.12,29.79-9.34,41.96c-6.23,12.18-14.69,21.61-25.37,28.3-10.69,6.69-22.63,10.04-35.83,10.04-11.34,0-21.33-2.33-29.97-6.97-8.64-4.64-15.66-10.5-21.05-17.57v95.64h-39.04v-228.08h39.04v22.31c5.02-7.06,11.94-12.96,20.77-17.71ZM1305.11,236.1c-3.81-6.78-8.83-11.94-15.06-15.47-6.23-3.53-12.97-5.3-20.21-5.3s-13.71,1.81-19.94,5.44c-6.23,3.62-11.25,8.88-15.06,15.75-3.81,6.88-5.72,14.96-5.72,24.26s1.9,17.38,5.72,24.26c3.81,6.88,8.83,12.13,15.06,15.75,6.23,3.62,12.87,5.44,19.94,5.44s13.98-1.86,20.21-5.58c6.23-3.72,11.24-9.01,15.06-15.89,3.81-6.88,5.72-15.06,5.72-24.54s-1.91-17.33-5.72-24.12Z" style="stroke-width: 0px;"/>
    <path d="M1378.44,218.68c6.23-12.08,14.68-21.37,25.37-27.88,10.69-6.5,22.63-9.76,35.83-9.76,11.52,0,21.61,2.33,30.25,6.97,8.64,4.65,15.57,10.5,20.77,17.57v-22.03h39.31v154.47h-39.31v-22.59c-5.02,7.25-11.95,13.24-20.77,17.98-8.83,4.74-19.01,7.11-30.53,7.11-13.01,0-24.86-3.35-35.55-10.04-10.69-6.69-19.15-16.12-25.37-28.3-6.23-12.17-9.34-26.16-9.34-41.96s3.11-29.46,9.34-41.54ZM1485.09,236.38c-3.72-6.78-8.74-11.99-15.06-15.61-6.32-3.62-13.11-5.44-20.35-5.44s-13.94,1.77-20.08,5.3c-6.13,3.53-11.11,8.69-14.92,15.47-3.81,6.79-5.72,14.83-5.72,24.12s1.9,17.43,5.72,24.4c3.81,6.97,8.83,12.32,15.06,16.03,6.23,3.72,12.87,5.58,19.94,5.58s14.03-1.81,20.35-5.44c6.32-3.62,11.34-8.83,15.06-15.61,3.72-6.78,5.58-14.92,5.58-24.4s-1.86-17.61-5.58-24.4Z" style="stroke-width: 0px;"/>
    <path d="M1567.9,218.81c6.5-11.99,15.52-21.28,27.05-27.88,11.52-6.6,24.72-9.9,39.59-9.9,19.14,0,34.99,4.79,47.54,14.36,12.55,9.57,20.96,23,25.23,40.29h-42.1c-2.23-6.69-6-11.94-11.29-15.75-5.3-3.81-11.85-5.71-19.66-5.71-11.15,0-19.98,4.04-26.49,12.13-6.51,8.09-9.76,19.56-9.76,34.44s3.25,26.07,9.76,34.16c6.5,8.09,15.34,12.13,26.49,12.13,15.8,0,26.11-7.06,30.95-21.19h42.1c-4.28,16.73-12.73,30.02-25.37,39.87-12.64,9.86-28.44,14.78-47.4,14.78-14.87,0-28.07-3.3-39.59-9.9-11.53-6.6-20.54-15.89-27.05-27.88-6.51-11.99-9.76-25.97-9.76-41.96s3.25-29.97,9.76-41.96Z" style="stroke-width: 0px;"/>
    <path d="M1878.51,272.49h-112.92c.93,11.15,4.83,19.89,11.71,26.21,6.88,6.32,15.34,9.48,25.37,9.48,14.5,0,24.82-6.23,30.95-18.68h42.1c-4.46,14.87-13.01,27.09-25.65,36.66-12.64,9.58-28.16,14.36-46.56,14.36-14.87,0-28.21-3.3-40.01-9.9-11.81-6.6-21.01-15.94-27.6-28.02-6.6-12.08-9.9-26.02-9.9-41.82s3.25-30.02,9.76-42.1c6.5-12.08,15.61-21.37,27.33-27.88,11.71-6.5,25.19-9.76,40.43-9.76s27.83,3.16,39.45,9.48c11.61,6.32,20.63,15.29,27.05,26.91,6.41,11.62,9.62,24.95,9.62,40.01,0,5.58-.37,10.6-1.12,15.06ZM1839.2,246.28c-.19-10.04-3.81-18.08-10.87-24.12-7.07-6.04-15.71-9.06-25.93-9.06-9.67,0-17.8,2.93-24.4,8.78-6.6,5.86-10.64,13.99-12.13,24.4h73.33Z" style="stroke-width: 0px;"/>
  </g>
</svg>